REM MD5 9dd2fb25d37958f7887bc460cbcfc8ca
FILE "Official U.S. PlayStation Magazine Demo Disc 27 (USA).bin" BINARY
  TRACK 01 MODE2/2352
    INDEX 01 00:00:00
  TRACK 02 AUDIO
    INDEX 00 44:11:40
    INDEX 01 44:13:40
  TRACK 03 AUDIO
    INDEX 00 46:35:61
    INDEX 01 46:37:61
REM LEADOUT 46:43:57
